<?xml version="1.0" standalone="no"?>
<svg width="497" height="316" viewBox="0 0 1988 1264" xmlns="http://www.w3.org/2000/svg" xmlns:xlink="http://www.w3.org/1999/xlink">
<title>Vulva hand-sign or "yoni mudra"</title>
<defs><path id="Half" d="M960,52c0,14-70,245-126,341-42,73-119,155-119,245 0,111,105,122,161,164 34,31,82,98,82,148 0,24-13,30-24,30-11,0-22-9-30-15-38-27-60-63-103-84-26-12-52-18-81-18-48,0-84,13-125,15-47-2-86-26-135-26-94,47-132,279-209,356-64-59-172-148-239-219-4-4-5-9-5-15 0-24,64-117,111-170 107-129,166-161,254-256 50-52,69-60,101-96 27-29,37-60,62-93 19-27,59-64,109-101 29-20,52-33,59-33 5,0,7,4,7,9 0,11-71,91-72,93-22,25-84,115-84,120 0,5,5,10,10,10 4,0,7-2,9-4 121-176,38-53,151-200 10-12,20-44,30-55 30-34,61-51,68-51 6,0,11,5,11,11 0,16-39,96-99,178-26,35-82,102-82,122 0,5,4,10,10,10 3,0,7-3,9-6 27-63,128-152,180-291 3-8,4-14,4-21 1-18,16-43,41-109 7-19,19-41,34-41 9,0,30,9,30,52Z"/></defs>
<rect width="1988" height="1264" fill="#ffffff"/>
<use transform="translate(22,1236)scale(1,-1)" xlink:href="#Half"/>
<use transform="translate(1966,1236)scale(-1,-1)" xlink:href="#Half"/>
</svg>